<svg viewBox="0 0 600 600" xmlns="http://www.w3.org/2000/svg">
  <defs>
    <linearGradient id="gramGradient" x1="0%" y1="100%" x2="100%" y2="0%">
      <stop offset="0%" stop-color="#4f5bd5" />
      <stop offset="45%" stop-color="#962fbf" />
      <stop offset="75%" stop-color="#d62976" />
      <stop offset="100%" stop-color="#fa7e1e" />
    </linearGradient>
  </defs>
  <path
    fill-rule="evenodd"
    fill="url(#gramGradient)"
    d="M 512.86,300.00 C 515.68,302.22 518.47,304.57 520.64,306.93 C 522.82,309.30 524.69,311.78 525.92,314.21 C 527.15,316.65 527.86,319.15 528.00,321.55 C 528.14,323.96 527.65,326.36 526.75,328.65 C 525.85,330.93 524.33,333.15 522.57,335.25 C 520.82,337.35 518.56,339.35 516.25,341.25 C 513.93,343.15 511.27,344.93 508.70,346.65 C 506.12,348.37 503.38,349.98 500.80,351.56 C 498.22,353.14 495.63,354.64 493.22,356.14 C 490.81,357.63 488.49,359.08 486.32,360.54 C 484.16,362.00 482.13,363.43 480.22,364.88 C 478.30,366.33 476.53,367.77 474.84,369.22 C 473.15,370.68 471.57,372.13 470.09,373.60 C 468.60,375.08 467.21,376.55 465.93,378.08 C 464.66,379.61 463.47,381.14 462.44,382.77 C 461.42,384.40 460.51,386.05 459.79,387.85 C 459.08,389.64 458.52,391.51 458.16,393.53 C 457.79,395.56 457.63,397.71 457.60,400.01 C 457.56,402.31 457.75,404.78 457.95,407.35 C 458.16,409.91 458.55,412.65 458.82,415.39 C 459.09,418.13 459.46,421.01 459.55,423.76 C 459.65,426.50 459.71,429.32 459.39,431.86 C 459.07,434.39 458.56,436.88 457.63,438.97 C 456.70,441.07 455.45,442.96 453.81,444.43 C 452.16,445.90 450.11,447.03 447.79,447.79 C 445.47,448.54 442.72,448.87 439.88,448.96 C 437.04,449.04 433.85,448.70 430.75,448.30 C 427.65,447.91 424.34,447.17 421.28,446.61 C 418.23,446.05 415.15,445.30 412.42,444.93 C 409.70,444.57 407.12,444.24 404.93,444.42 C 402.74,444.61 400.84,445.05 399.25,446.05 C 397.67,447.04 396.46,448.48 395.44,450.38 C 394.42,452.29 393.75,454.74 393.14,457.49 C 392.52,460.23 392.18,463.51 391.74,466.87 C 391.30,470.22 391.00,474.00 390.50,477.61 C 389.99,481.22 389.49,485.06 388.72,488.54 C 387.95,492.02 387.06,495.50 385.90,498.50 C 384.75,501.51 383.37,504.29 381.79,506.58 C 380.21,508.86 378.37,510.76 376.40,512.22 C 374.43,513.67 372.23,514.66 369.96,515.32 C 367.69,515.97 365.25,516.16 362.80,516.14 C 360.34,516.12 357.78,515.72 355.25,515.20 C 352.73,514.69 350.15,513.90 347.63,513.07 C 345.10,512.24 342.58,511.24 340.10,510.23 C 337.63,509.22 335.18,508.12 332.78,507.00 C 330.39,505.88 328.03,504.71 325.71,503.51 C 323.39,502.31 321.12,501.07 318.89,499.80 C 316.66,498.54 314.47,497.22 312.33,495.93 C 310.18,494.64 308.09,493.29 306.04,492.05 C 303.98,490.81 301.98,489.55 300.00,488.50 C 298.02,487.45 296.10,486.45 294.16,485.76 C 292.23,485.07 290.34,484.53 288.40,484.35 C 286.46,484.17 284.54,484.26 282.54,484.68 C 280.54,485.10 278.52,485.88 276.39,486.87 C 274.27,487.87 272.08,489.24 269.80,490.65 C 267.53,492.05 265.15,493.78 262.74,495.31 C 260.33,496.85 257.81,498.55 255.33,499.85 C 252.85,501.14 250.29,502.40 247.85,503.10 C 245.42,503.79 242.97,504.22 240.73,504.02 C 238.48,503.83 236.31,503.16 234.38,501.94 C 232.46,500.73 230.70,498.91 229.18,496.72 C 227.66,494.52 226.37,491.72 225.25,488.79 C 224.14,485.85 223.28,482.42 222.49,479.12 C 221.69,475.83 221.12,472.23 220.47,469.01 C 219.82,465.79 219.31,462.53 218.58,459.80 C 217.85,457.06 217.14,454.55 216.11,452.59 C 215.09,450.64 213.93,449.11 212.43,448.08 C 210.93,447.04 209.17,446.54 207.11,446.37 C 205.04,446.21 202.65,446.58 200.05,447.08 C 197.44,447.58 194.50,448.51 191.47,449.38 C 188.44,450.25 185.13,451.38 181.88,452.28 C 178.62,453.19 175.19,454.16 171.93,454.81 C 168.66,455.47 165.36,456.01 162.28,456.22 C 159.20,456.42 156.21,456.38 153.46,456.05 C 150.71,455.71 148.14,455.07 145.80,454.20 C 143.45,453.33 141.32,452.16 139.38,450.83 C 137.43,449.51 135.71,447.92 134.13,446.24 C 132.55,444.55 131.15,442.68 129.89,440.73 C 128.62,438.78 127.51,436.70 126.52,434.56 C 125.54,432.42 124.68,430.19 123.98,427.89 C 123.28,425.59 122.71,423.20 122.31,420.76 C 121.91,418.32 121.66,415.79 121.59,413.22 C 121.51,410.66 121.62,408.01 121.85,405.36 C 122.07,402.71 122.50,399.99 122.95,397.34 C 123.39,394.68 124.01,391.99 124.52,389.41 C 125.02,386.84 125.63,384.29 125.97,381.89 C 126.31,379.50 126.62,377.20 126.55,375.06 C 126.49,372.92 126.24,370.92 125.57,369.06 C 124.89,367.20 123.89,365.52 122.51,363.90 C 121.13,362.28 119.32,360.83 117.28,359.37 C 115.24,357.91 112.75,356.56 110.26,355.13 C 107.76,353.69 104.91,352.30 102.31,350.76 C 99.71,349.22 96.93,347.64 94.64,345.90 C 92.35,344.17 90.14,342.31 88.56,340.33 C 86.99,338.35 85.76,336.22 85.21,334.02 C 84.67,331.82 84.68,329.47 85.29,327.12 C 85.91,324.78 87.20,322.33 88.90,319.96 C 90.59,317.58 92.96,315.17 95.47,312.87 C 97.97,310.57 101.03,308.31 103.92,306.16 C 106.82,304.02 110.04,301.97 112.86,300.00 C 115.68,298.03 118.53,296.19 120.84,294.37 C 123.15,292.55 125.22,290.84 126.71,289.10 C 128.20,287.35 129.24,285.67 129.77,283.91 C 130.31,282.14 130.28,280.38 129.90,278.51 C 129.52,276.64 128.59,274.71 127.50,272.68 C 126.40,270.64 124.86,268.51 123.33,266.30 C 121.80,264.08 119.99,261.76 118.33,259.39 C 116.67,257.02 114.91,254.56 113.37,252.08 C 111.83,249.61 110.35,247.06 109.10,244.54 C 107.86,242.01 106.77,239.46 105.90,236.93 C 105.03,234.41 104.36,231.88 103.86,229.39 C 103.37,226.89 103.07,224.41 102.93,221.97 C 102.78,219.53 102.81,217.11 102.99,214.74 C 103.17,212.38 103.49,210.03 104.00,207.77 C 104.51,205.51 105.16,203.28 106.04,201.17 C 106.92,199.07 107.97,197.02 109.27,195.15 C 110.57,193.27 112.09,191.49 113.86,189.92 C 115.63,188.34 117.65,186.92 119.86,185.68 C 122.07,184.45 124.56,183.41 127.12,182.51 C 129.68,181.61 132.49,180.93 135.21,180.28 C 137.94,179.62 140.83,179.16 143.49,178.60 C 146.15,178.03 148.83,177.58 151.18,176.89 C 153.53,176.20 155.75,175.49 157.59,174.45 C 159.43,173.40 160.99,172.20 162.22,170.61 C 163.44,169.03 164.31,167.15 164.95,164.95 C 165.59,162.74 165.85,160.15 166.06,157.37 C 166.28,154.59 166.18,151.42 166.22,148.26 C 166.27,145.10 166.14,141.63 166.31,138.40 C 166.49,135.17 166.68,131.80 167.26,128.87 C 167.84,125.94 168.62,123.09 169.82,120.82 C 171.01,118.54 172.54,116.58 174.42,115.21 C 176.30,113.85 178.59,112.99 181.10,112.65 C 183.62,112.31 186.53,112.57 189.52,113.19 C 192.51,113.80 195.81,115.01 199.04,116.35 C 202.27,117.68 205.67,119.49 208.90,121.20 C 212.13,122.91 215.38,124.91 218.41,126.61 C 221.43,128.31 224.35,130.06 227.04,131.40 C 229.73,132.75 232.23,133.92 234.54,134.67 C 236.85,135.41 238.94,135.83 240.91,135.86 C 242.88,135.90 244.64,135.53 246.35,134.89 C 248.07,134.25 249.63,133.21 251.20,132.03 C 252.77,130.84 254.25,129.32 255.78,127.77 C 257.31,126.22 258.81,124.45 260.37,122.70 C 261.93,120.96 263.51,119.11 265.15,117.31 C 266.79,115.52 268.47,113.70 270.21,111.92 C 271.95,110.14 273.74,108.39 275.58,106.66 C 277.41,104.94 279.30,103.24 281.24,101.58 C 283.18,99.92 285.17,98.27 287.21,96.72 C 289.25,95.16 291.34,93.62 293.47,92.25 C 295.60,90.88 297.79,89.55 300.00,88.50 C 302.21,87.45 304.47,86.52 306.73,85.96 C 308.98,85.40 311.27,85.06 313.52,85.14 C 315.76,85.23 318.02,85.64 320.19,86.46 C 322.35,87.27 324.49,88.51 326.53,90.03 C 328.56,91.55 330.52,93.51 332.38,95.57 C 334.24,97.63 335.99,100.08 337.69,102.40 C 339.40,104.72 340.98,107.27 342.59,109.48 C 344.19,111.69 345.71,113.93 347.33,115.66 C 348.95,117.40 350.55,118.93 352.32,119.91 C 354.10,120.88 355.93,121.45 357.99,121.52 C 360.05,121.60 362.25,121.14 364.67,120.36 C 367.09,119.59 369.73,118.27 372.50,116.88 C 375.28,115.48 378.30,113.65 381.35,112.02 C 384.39,110.39 387.64,108.52 390.78,107.08 C 393.92,105.64 397.17,104.23 400.18,103.39 C 403.18,102.56 406.17,102.01 408.81,102.07 C 411.46,102.13 413.94,102.68 416.04,103.78 C 418.15,104.87 419.97,106.56 421.44,108.64 C 422.91,110.72 424.02,113.39 424.88,116.24 C 425.74,119.10 426.22,122.44 426.58,125.77 C 426.94,129.10 426.99,132.75 427.04,136.22 C 427.09,139.69 426.94,143.28 426.90,146.61 C 426.86,149.93 426.74,153.20 426.80,156.17 C 426.87,159.15 426.97,161.93 427.28,164.46 C 427.59,166.99 428.03,169.27 428.64,171.36 C 429.25,173.45 430.04,175.29 430.97,177.01 C 431.89,178.74 432.98,180.25 434.17,181.71 C 435.36,183.17 436.69,184.48 438.09,185.76 C 439.49,187.04 441.00,188.23 442.58,189.40 C 444.16,190.57 445.83,191.69 447.59,192.77 C 449.35,193.86 451.18,194.91 453.14,195.93 C 455.09,196.95 457.15,197.92 459.32,198.89 C 461.49,199.86 463.78,200.79 466.14,201.74 C 468.50,202.70 471.01,203.62 473.47,204.63 C 475.93,205.65 478.52,206.66 480.92,207.82 C 483.33,208.97 485.77,210.19 487.90,211.58 C 490.02,212.98 492.06,214.49 493.66,216.20 C 495.25,217.90 496.61,219.78 497.48,221.81 C 498.35,223.85 498.83,226.08 498.86,228.41 C 498.90,230.73 498.45,233.24 497.70,235.76 C 496.95,238.28 495.70,240.94 494.37,243.53 C 493.05,246.12 491.30,248.76 489.74,251.28 C 488.18,253.80 486.38,256.30 485.01,258.65 C 483.63,261.00 482.27,263.25 481.48,265.38 C 480.69,267.51 480.18,269.51 480.29,271.44 C 480.40,273.38 481.00,275.18 482.14,276.99 C 483.28,278.80 485.03,280.52 487.12,282.31 C 489.21,284.11 491.91,285.87 494.68,287.75 C 497.45,289.63 500.70,291.56 503.73,293.60 C 506.76,295.64 510.04,297.78 512.86,300.00 Z M 448,300 a 148,148 0 1,0 -296,0 a 148,148 0 1,0 296,0"
  />
  <circle cx="300" cy="300" r="128" fill="url(#gramGradient)" />
</svg>
